<?xml version="1.0" encoding="utf-8"?>
<!-- Generator: Adobe Illustrator 20.1.0, SVG Export Plug-In . SVG Version: 6.00 Build 0)  -->
<svg version="1.1" id="Layer_1" xmlns="http://www.w3.org/2000/svg" xmlns:xlink="http://www.w3.org/1999/xlink" x="0px" y="0px"
	 viewBox="0 0 100 100" style="enable-background:new 0 0 100 100;" xml:space="preserve">
<style type="text/css">
	.st0{fill:#D1D1D1;}
</style>
<path class="st0" d="M91.3,28.3L65.8,6.4C65.3,6,64.6,6,64.1,6.2c-0.5,0.3-0.9,0.9-0.8,1.5l2.1,20.5c-8.2-4.4-20.7-0.6-29.3,9.5
	c-4.6,5.3-7.4,11.6-8,17.6c-0.5,5.4,0.8,10.2,3.7,13.5L9.9,70.1c-0.6,0-1.1,0.4-1.3,1s0,1.2,0.4,1.6l25.5,21.9
	c0.3,0.2,0.6,0.4,1,0.4c0.2,0,0.5-0.1,0.7-0.2c0.5-0.3,0.9-0.9,0.8-1.5l-2.2-21.8c2.4,1.5,5.3,2.3,8.4,2.3c1.8,0,3.6-0.2,5.5-0.7
	c5.9-1.5,11.6-5.3,16.2-10.6c8.6-10.1,10.5-23,4.9-30.4L90.4,31c0.6,0,1.1-0.4,1.3-1C92,29.4,91.8,28.7,91.3,28.3z"/>
</svg>
